# Blender v2.80 (sub 75) OBJ File: 'Bin01.blend'
# www.blender.org
mtllib Bin01.mtl
o Square_Bin_Cube
v 0.977705 2.995919 -1.090256
v 0.707101 -0.004081 -0.853091
v 0.977705 2.995919 0.909744
v 0.707101 -0.004081 0.672580
v -1.022295 2.995919 -1.090256
v -0.751690 -0.004081 -0.853091
v -1.022295 2.995919 0.909744
v -0.751690 -0.004081 0.672580
v 0.795887 2.995919 0.909744
v 0.614069 2.995919 0.909744
v 0.432251 2.995919 0.909744
v 0.250432 2.995919 0.909744
v 0.068614 2.995919 0.909744
v -0.113204 2.995919 0.909744
v -0.295022 2.995919 0.909744
v -0.476840 2.995919 0.909744
v -0.658658 2.995919 0.909744
v -0.840477 2.995919 0.909744
v 0.977705 2.995919 -0.908438
v 0.977705 2.995919 -0.726620
v 0.977705 2.995919 -0.544801
v 0.977705 2.995919 -0.362983
v 0.977705 2.995919 -0.181165
v 0.977705 2.995919 0.000653
v 0.977705 2.995919 0.182471
v 0.977705 2.995919 0.364290
v 0.977705 2.995919 0.546108
v 0.977705 2.995919 0.727926
v -1.022295 2.995919 0.727926
v -1.022295 2.995919 0.546108
v -1.022295 2.995919 0.364290
v -1.022295 2.995919 0.182471
v -1.022295 2.995919 0.000653
v -1.022295 2.995919 -0.181165
v -1.022295 2.995919 -0.362983
v -1.022295 2.995919 -0.544801
v -1.022295 2.995919 -0.726620
v -1.022295 2.995919 -0.908438
v -0.840477 2.995919 -1.090256
v -0.658658 2.995919 -1.090256
v -0.476840 2.995919 -1.090256
v -0.295022 2.995919 -1.090256
v -0.113204 2.995919 -1.090256
v 0.068614 2.995919 -1.090256
v 0.250432 2.995919 -1.090256
v 0.432251 2.995919 -1.090256
v 0.614069 2.995919 -1.090256
v 0.795887 2.995919 -1.090256
v 0.795887 2.995919 -0.908438
v 0.795887 2.995919 -0.726620
v 0.795887 2.995919 -0.544801
v 0.795887 2.995919 -0.362983
v 0.795887 2.995919 -0.181165
v 0.795887 2.995919 0.000653
v 0.795887 2.995919 0.182471
v 0.795887 2.995919 0.364290
v 0.795887 2.995919 0.546108
v 0.795887 2.995919 0.727926
v 0.614069 2.995919 -0.908438
v 0.480724 0.149997 -0.624075
v 0.586898 0.149997 -0.498759
v 0.662525 0.149997 -0.352959
v 0.703812 0.149997 -0.193985
v 0.708689 0.149997 -0.029811
v 0.676911 0.149997 0.131333
v 0.610072 0.149997 0.281365
v 0.511524 0.149997 0.412763
v 0.614069 2.995919 0.727926
v 0.432251 2.995919 -0.908438
v 0.349326 0.149997 -0.722623
v 0.432251 0.149997 -0.544801
v 0.432251 0.149997 -0.362983
v 0.432251 0.149997 -0.181165
v 0.432251 0.149997 0.000653
v 0.432251 0.149997 0.182471
v 0.432251 0.149997 0.364290
v 0.386208 0.149997 0.518937
v 0.432251 2.995919 0.727926
v 0.250432 2.995919 -0.908438
v 0.199294 0.149997 -0.789462
v 0.250432 0.149997 -0.544801
v 0.250432 0.149997 -0.362983
v 0.250432 0.149997 -0.181165
v 0.250432 0.149997 0.000653
v 0.250432 0.149997 0.182471
v 0.250432 0.149997 0.364290
v 0.240408 0.149997 0.594564
v 0.250432 2.995919 0.727926
v 0.068614 2.995919 -0.908438
v 0.038150 0.149997 -0.821239
v 0.068614 0.149997 -0.544801
v 0.068614 0.149997 -0.362983
v 0.068614 0.149997 -0.181165
v 0.068614 0.149997 0.000653
v 0.068614 0.149997 0.182471
v 0.068614 0.149997 0.364290
v 0.081435 0.149997 0.635851
v 0.068614 2.995919 0.727926
v -0.113204 2.995919 -0.908438
v -0.126024 0.149997 -0.816362
v -0.113204 0.149997 -0.544801
v -0.113204 0.149997 -0.362983
v -0.113204 0.149997 -0.181165
v -0.113204 0.149997 0.000653
v -0.113204 0.149997 0.182471
v -0.113204 0.149997 0.364290
v -0.082740 0.149997 0.640728
v -0.113204 2.995919 0.727926
v -0.295022 2.995919 -0.908438
v -0.284997 0.149997 -0.775075
v -0.295022 0.149997 -0.544801
v -0.295022 0.149997 -0.362983
v -0.295022 0.149997 -0.181165
v -0.295022 0.149997 0.000653
v -0.295022 0.149997 0.182471
v -0.295022 0.149997 0.364290
v -0.243884 0.149997 0.608950
v -0.295022 2.995919 0.727926
v -0.476840 2.995919 -0.908438
v -0.430798 0.149997 -0.699449
v -0.476840 0.149997 -0.544801
v -0.476840 0.149997 -0.362983
v -0.476840 0.149997 -0.181165
v -0.476840 0.149997 0.000653
v -0.476840 0.149997 0.182471
v -0.476840 0.149997 0.364290
v -0.393916 0.149997 0.542111
v -0.476840 2.995919 0.727926
v -0.658658 2.995919 -0.908438
v -0.556114 0.149997 -0.593275
v -0.654662 0.149997 -0.461877
v -0.721501 0.149997 -0.311845
v -0.753278 0.149997 -0.150701
v -0.748401 0.149997 0.013474
v -0.707114 0.149997 0.172447
v -0.631488 0.149997 0.318247
v -0.525313 0.149997 0.443563
v -0.658658 2.995919 0.727926
v -0.840477 2.995919 -0.908438
v -0.840477 2.995919 -0.726620
v -0.840477 2.995919 -0.544801
v -0.840477 2.995919 -0.362983
v -0.840477 2.995919 -0.181165
v -0.840477 2.995919 0.000653
v -0.840477 2.995919 0.182471
v -0.840477 2.995919 0.364290
v -0.840477 2.995919 0.546108
v -0.840477 2.995919 0.727926
vt 0.602273 0.227273
vt 0.625000 0.227273
vt 0.625000 0.250000
vt 0.602273 0.250000
vt 0.375000 0.250000
vt 0.625000 0.250000
vt 0.625000 0.272727
vt 0.625000 0.295455
vt 0.625000 0.318182
vt 0.625000 0.340909
vt 0.625000 0.363636
vt 0.625000 0.386364
vt 0.625000 0.409091
vt 0.625000 0.431818
vt 0.625000 0.454545
vt 0.625000 0.477273
vt 0.625000 0.500000
vt 0.375000 0.500000
vt 0.625000 0.522727
vt 0.625000 0.545455
vt 0.625000 0.568182
vt 0.625000 0.590909
vt 0.625000 0.613636
vt 0.625000 0.636364
vt 0.625000 0.659091
vt 0.625000 0.681818
vt 0.625000 0.704545
vt 0.625000 0.727273
vt 0.625000 0.750000
vt 0.375000 0.750000
vt 0.625000 0.750000
vt 0.625000 1.000000
vt 0.375000 1.000000
vt 0.125000 0.500000
vt 0.375000 0.500000
vt 0.375000 0.522727
vt 0.375000 0.545455
vt 0.375000 0.568182
vt 0.375000 0.590909
vt 0.375000 0.613636
vt 0.375000 0.636364
vt 0.375000 0.659091
vt 0.375000 0.681818
vt 0.375000 0.704545
vt 0.375000 0.727273
vt 0.375000 0.750000
vt 0.125000 0.750000
vt 0.625000 0.500000
vt 0.875000 0.500000
vt 0.875000 0.522727
vt 0.875000 0.545455
vt 0.875000 0.568182
vt 0.875000 0.590909
vt 0.875000 0.613636
vt 0.875000 0.636364
vt 0.875000 0.659091
vt 0.875000 0.681818
vt 0.875000 0.704545
vt 0.875000 0.727273
vt 0.875000 0.750000
vt 0.375000 0.227273
vt 0.397727 0.227273
vt 0.397727 0.250000
vt 0.375000 0.250000
vt 0.420455 0.227273
vt 0.420455 0.250000
vt 0.443182 0.227273
vt 0.443182 0.250000
vt 0.465909 0.227273
vt 0.465909 0.250000
vt 0.488636 0.227273
vt 0.488636 0.250000
vt 0.511364 0.227273
vt 0.511364 0.250000
vt 0.534091 0.227273
vt 0.534091 0.250000
vt 0.556818 0.227273
vt 0.556818 0.250000
vt 0.579545 0.227273
vt 0.579545 0.250000
vt 0.375000 0.000000
vt 0.397727 0.000000
vt 0.397727 0.022727
vt 0.375000 0.022727
vt 0.397727 0.045455
vt 0.375000 0.045455
vt 0.397727 0.068182
vt 0.375000 0.068182
vt 0.397727 0.090909
vt 0.375000 0.090909
vt 0.397727 0.113636
vt 0.375000 0.113636
vt 0.397727 0.136364
vt 0.375000 0.136364
vt 0.397727 0.159091
vt 0.375000 0.159091
vt 0.397727 0.181818
vt 0.375000 0.181818
vt 0.397727 0.204545
vt 0.375000 0.204545
vt 0.420455 0.000000
vt 0.420455 0.022727
vt 0.420455 0.045455
vt 0.420455 0.068182
vt 0.420455 0.090909
vt 0.420455 0.113636
vt 0.420455 0.136364
vt 0.420455 0.159091
vt 0.420455 0.181818
vt 0.420455 0.204545
vt 0.443182 0.000000
vt 0.443182 0.022727
vt 0.443182 0.045455
vt 0.443182 0.068182
vt 0.443182 0.090909
vt 0.443182 0.113636
vt 0.443182 0.136364
vt 0.443182 0.159091
vt 0.443182 0.181818
vt 0.443182 0.204545
vt 0.465909 0.000000
vt 0.465909 0.022727
vt 0.465909 0.045455
vt 0.465909 0.068182
vt 0.465909 0.090909
vt 0.465909 0.113636
vt 0.465909 0.136364
vt 0.465909 0.159091
vt 0.465909 0.181818
vt 0.465909 0.204545
vt 0.488636 0.000000
vt 0.488636 0.022727
vt 0.488636 0.045455
vt 0.488636 0.068182
vt 0.488636 0.090909
vt 0.488636 0.113636
vt 0.488636 0.136364
vt 0.488636 0.159091
vt 0.488636 0.181818
vt 0.488636 0.204545
vt 0.511364 0.000000
vt 0.511364 0.022727
vt 0.511364 0.045455
vt 0.511364 0.068182
vt 0.511364 0.090909
vt 0.511364 0.113636
vt 0.511364 0.136364
vt 0.511364 0.159091
vt 0.511364 0.181818
vt 0.511364 0.204545
vt 0.534091 0.000000
vt 0.534091 0.022727
vt 0.534091 0.045455
vt 0.534091 0.068182
vt 0.534091 0.090909
vt 0.534091 0.113636
vt 0.534091 0.136364
vt 0.534091 0.159091
vt 0.534091 0.181818
vt 0.534091 0.204545
vt 0.556818 0.000000
vt 0.556818 0.022727
vt 0.556818 0.045455
vt 0.556818 0.068182
vt 0.556818 0.090909
vt 0.556818 0.113636
vt 0.556818 0.136364
vt 0.556818 0.159091
vt 0.556818 0.181818
vt 0.556818 0.204545
vt 0.579545 0.000000
vt 0.579545 0.022727
vt 0.579545 0.045455
vt 0.579545 0.068182
vt 0.579545 0.090909
vt 0.579545 0.113636
vt 0.579545 0.136364
vt 0.579545 0.159091
vt 0.579545 0.181818
vt 0.579545 0.204545
vt 0.602273 0.000000
vt 0.602273 0.022727
vt 0.602273 0.045455
vt 0.602273 0.068182
vt 0.602273 0.090909
vt 0.602273 0.113636
vt 0.602273 0.136364
vt 0.602273 0.159091
vt 0.602273 0.181818
vt 0.602273 0.204545
vt 0.625000 0.000000
vt 0.625000 0.022727
vt 0.625000 0.045455
vt 0.625000 0.068182
vt 0.625000 0.090909
vt 0.625000 0.113636
vt 0.625000 0.136364
vt 0.625000 0.159091
vt 0.625000 0.181818
vt 0.625000 0.204545
vn 0.0000 1.0000 0.0000
vn 0.0000 -0.0788 0.9969
vn -0.9960 -0.0898 0.0000
vn 0.0000 -1.0000 0.0000
vn 0.9960 -0.0898 0.0000
vn 0.0000 -0.0788 -0.9969
vn -0.6994 0.1473 0.6994
vn -0.9408 0.0951 0.3252
vn -0.9726 0.0607 0.2245
vn -0.9920 0.0392 0.1202
vn -0.9994 0.0314 0.0141
vn -0.9950 0.0374 -0.0922
vn -0.9787 0.0571 -0.1971
vn -0.9500 0.0898 -0.2989
vn -0.6994 0.1473 -0.6994
vn -0.2989 0.0898 0.9500
vn -0.3252 0.0951 -0.9408
vn -0.1971 0.0571 0.9787
vn -0.2245 0.0607 -0.9726
vn -0.0922 0.0374 0.9950
vn -0.1202 0.0392 -0.9920
vn 0.0141 0.0314 0.9994
vn -0.0141 0.0314 -0.9994
vn 0.1202 0.0392 0.9920
vn 0.0922 0.0374 -0.9950
vn 0.2245 0.0607 0.9726
vn 0.1971 0.0571 -0.9787
vn 0.3252 0.0951 0.9408
vn 0.2989 0.0898 -0.9500
vn 0.6994 0.1473 0.6994
vn 0.9500 0.0898 0.2989
vn 0.9787 0.0571 0.1971
vn 0.9950 0.0374 0.0922
vn 0.9994 0.0314 -0.0141
vn 0.9920 0.0392 -0.1202
vn 0.9726 0.0607 -0.2245
vn 0.9408 0.0951 -0.3252
vn 0.6994 0.1473 -0.6994
usemtl Material
s off
f 148/1/1 29/2/1 7/3/1 18/4/1
f 4/5/2 3/6/2 9/7/2 10/8/2 11/9/2 12/10/2 13/11/2 14/12/2 15/13/2 16/14/2 17/15/2 18/16/2 7/17/2 8/18/2
f 8/18/3 7/17/3 29/19/3 30/20/3 31/21/3 32/22/3 33/23/3 34/24/3 35/25/3 36/26/3 37/27/3 38/28/3 5/29/3 6/30/3
f 6/30/4 2/31/4 4/32/4 8/33/4
f 2/34/5 1/35/5 19/36/5 20/37/5 21/38/5 22/39/5 23/40/5 24/41/5 25/42/5 26/43/5 27/44/5 28/45/5 3/46/5 4/47/5
f 6/48/6 5/49/6 39/50/6 40/51/6 41/52/6 42/53/6 43/54/6 44/55/6 45/56/6 46/57/6 47/58/6 48/59/6 1/60/6 2/31/6
f 28/61/1 58/62/1 9/63/1 3/64/1
f 58/62/1 68/65/1 10/66/1 9/63/1
f 68/65/1 78/67/1 11/68/1 10/66/1
f 78/67/1 88/69/1 12/70/1 11/68/1
f 88/69/1 98/71/1 13/72/1 12/70/1
f 98/71/1 108/73/1 14/74/1 13/72/1
f 108/73/1 118/75/1 15/76/1 14/74/1
f 118/75/1 128/77/1 16/78/1 15/76/1
f 128/77/1 138/79/1 17/80/1 16/78/1
f 138/79/1 148/1/1 18/4/1 17/80/1
f 1/81/1 48/82/1 49/83/1 19/84/1
f 19/84/1 49/83/1 50/85/1 20/86/1
f 20/86/1 50/85/1 51/87/1 21/88/1
f 21/88/1 51/87/1 52/89/1 22/90/1
f 22/90/1 52/89/1 53/91/1 23/92/1
f 23/92/1 53/91/1 54/93/1 24/94/1
f 24/94/1 54/93/1 55/95/1 25/96/1
f 25/96/1 55/95/1 56/97/1 26/98/1
f 26/98/1 56/97/1 57/99/1 27/100/1
f 27/100/1 57/99/1 58/62/1 28/61/1
f 48/82/1 47/101/1 59/102/1 49/83/1
f 49/83/7 59/102/7 60/103/7 50/85/7
f 50/85/8 60/103/8 61/104/8 51/87/8
f 51/87/9 61/104/9 62/105/9 52/89/9
f 52/89/10 62/105/10 63/106/10 53/91/10
f 53/91/11 63/106/11 64/107/11 54/93/11
f 54/93/12 64/107/12 65/108/12 55/95/12
f 55/95/13 65/108/13 66/109/13 56/97/13
f 56/97/14 66/109/14 67/110/14 57/99/14
f 57/99/15 67/110/15 68/65/15 58/62/15
f 47/101/1 46/111/1 69/112/1 59/102/1
f 59/102/16 69/112/16 70/113/16 60/103/16
f 60/103/1 70/113/1 71/114/1 61/104/1
f 61/104/1 71/114/1 72/115/1 62/105/1
f 62/105/1 72/115/1 73/116/1 63/106/1
f 63/106/1 73/116/1 74/117/1 64/107/1
f 64/107/1 74/117/1 75/118/1 65/108/1
f 65/108/1 75/118/1 76/119/1 66/109/1
f 66/109/1 76/119/1 77/120/1 67/110/1
f 67/110/17 77/120/17 78/67/17 68/65/17
f 46/111/1 45/121/1 79/122/1 69/112/1
f 69/112/18 79/122/18 80/123/18 70/113/18
f 70/113/1 80/123/1 81/124/1 71/114/1
f 71/114/1 81/124/1 82/125/1 72/115/1
f 72/115/1 82/125/1 83/126/1 73/116/1
f 73/116/1 83/126/1 84/127/1 74/117/1
f 74/117/1 84/127/1 85/128/1 75/118/1
f 75/118/1 85/128/1 86/129/1 76/119/1
f 76/119/1 86/129/1 87/130/1 77/120/1
f 77/120/19 87/130/19 88/69/19 78/67/19
f 45/121/1 44/131/1 89/132/1 79/122/1
f 79/122/20 89/132/20 90/133/20 80/123/20
f 80/123/1 90/133/1 91/134/1 81/124/1
f 81/124/1 91/134/1 92/135/1 82/125/1
f 82/125/1 92/135/1 93/136/1 83/126/1
f 83/126/1 93/136/1 94/137/1 84/127/1
f 84/127/1 94/137/1 95/138/1 85/128/1
f 85/128/1 95/138/1 96/139/1 86/129/1
f 86/129/1 96/139/1 97/140/1 87/130/1
f 87/130/21 97/140/21 98/71/21 88/69/21
f 44/131/1 43/141/1 99/142/1 89/132/1
f 89/132/22 99/142/22 100/143/22 90/133/22
f 90/133/1 100/143/1 101/144/1 91/134/1
f 91/134/1 101/144/1 102/145/1 92/135/1
f 92/135/1 102/145/1 103/146/1 93/136/1
f 93/136/1 103/146/1 104/147/1 94/137/1
f 94/137/1 104/147/1 105/148/1 95/138/1
f 95/138/1 105/148/1 106/149/1 96/139/1
f 96/139/1 106/149/1 107/150/1 97/140/1
f 97/140/23 107/150/23 108/73/23 98/71/23
f 43/141/1 42/151/1 109/152/1 99/142/1
f 99/142/24 109/152/24 110/153/24 100/143/24
f 100/143/1 110/153/1 111/154/1 101/144/1
f 101/144/1 111/154/1 112/155/1 102/145/1
f 102/145/1 112/155/1 113/156/1 103/146/1
f 103/146/1 113/156/1 114/157/1 104/147/1
f 104/147/1 114/157/1 115/158/1 105/148/1
f 105/148/1 115/158/1 116/159/1 106/149/1
f 106/149/1 116/159/1 117/160/1 107/150/1
f 107/150/25 117/160/25 118/75/25 108/73/25
f 42/151/1 41/161/1 119/162/1 109/152/1
f 109/152/26 119/162/26 120/163/26 110/153/26
f 110/153/1 120/163/1 121/164/1 111/154/1
f 111/154/1 121/164/1 122/165/1 112/155/1
f 112/155/1 122/165/1 123/166/1 113/156/1
f 113/156/1 123/166/1 124/167/1 114/157/1
f 114/157/1 124/167/1 125/168/1 115/158/1
f 115/158/1 125/168/1 126/169/1 116/159/1
f 116/159/1 126/169/1 127/170/1 117/160/1
f 117/160/27 127/170/27 128/77/27 118/75/27
f 41/161/1 40/171/1 129/172/1 119/162/1
f 119/162/28 129/172/28 130/173/28 120/163/28
f 120/163/1 130/173/1 131/174/1 121/164/1
f 121/164/1 131/174/1 132/175/1 122/165/1
f 122/165/1 132/175/1 133/176/1 123/166/1
f 123/166/1 133/176/1 134/177/1 124/167/1
f 124/167/1 134/177/1 135/178/1 125/168/1
f 125/168/1 135/178/1 136/179/1 126/169/1
f 126/169/1 136/179/1 137/180/1 127/170/1
f 127/170/29 137/180/29 138/79/29 128/77/29
f 40/171/1 39/181/1 139/182/1 129/172/1
f 129/172/30 139/182/30 140/183/30 130/173/30
f 130/173/31 140/183/31 141/184/31 131/174/31
f 131/174/32 141/184/32 142/185/32 132/175/32
f 132/175/33 142/185/33 143/186/33 133/176/33
f 133/176/34 143/186/34 144/187/34 134/177/34
f 134/177/35 144/187/35 145/188/35 135/178/35
f 135/178/36 145/188/36 146/189/36 136/179/36
f 136/179/37 146/189/37 147/190/37 137/180/37
f 137/180/38 147/190/38 148/1/38 138/79/38
f 39/181/1 5/191/1 38/192/1 139/182/1
f 139/182/1 38/192/1 37/193/1 140/183/1
f 140/183/1 37/193/1 36/194/1 141/184/1
f 141/184/1 36/194/1 35/195/1 142/185/1
f 142/185/1 35/195/1 34/196/1 143/186/1
f 143/186/1 34/196/1 33/197/1 144/187/1
f 144/187/1 33/197/1 32/198/1 145/188/1
f 145/188/1 32/198/1 31/199/1 146/189/1
f 146/189/1 31/199/1 30/200/1 147/190/1
f 147/190/1 30/200/1 29/2/1 148/1/1
