# Blender v2.80 (sub 75) OBJ File: 'mirror.blend'
# www.blender.org
mtllib Mirror.mtl
o Cube
v -0.038068 4.606712 -1.629434
v -0.038068 -4.606712 -1.629434
v -0.038068 4.606712 1.629434
v -0.038068 -4.606712 1.629434
v -0.250000 5.000000 -2.000000
v -0.250000 -5.000000 -2.000000
v -0.250000 5.000000 2.000000
v -0.250000 -5.000000 2.000000
v 0.250000 5.000000 -2.000000
v 0.250000 -5.000000 -2.000000
v 0.250000 5.000000 2.000000
v 0.250000 -5.000000 2.000000
v 0.250000 4.794271 -1.796172
v 0.250000 -4.794271 -1.796172
v 0.250000 4.794271 1.796172
v 0.250000 -4.794271 1.796172
vt 0.375000 0.000000
vt 0.625000 0.000000
vt 0.625000 0.250000
vt 0.375000 0.250000
vt 0.375000 0.250000
vt 0.625000 0.250000
vt 0.625000 0.500000
vt 0.375000 0.500000
vt 0.625000 0.750000
vt 0.375000 0.750000
vt 0.625000 0.750000
vt 0.625000 1.000000
vt 0.375000 1.000000
vt 0.147500 0.523160
vt 0.352500 0.523160
vt 0.352500 0.726840
vt 0.147500 0.726840
vt 0.625000 0.500000
vt 0.875000 0.500000
vt 0.875000 0.750000
vt 0.362261 0.512739
vt 0.137739 0.512739
vt 0.125000 0.500000
vt 0.375000 0.500000
vt 0.137739 0.737261
vt 0.362261 0.737261
vt 0.375000 0.750000
vt 0.125000 0.750000
vn 0.0000 1.0000 0.0000
vn 0.0000 0.0000 1.0000
vn -1.0000 0.0000 0.0000
vn 0.0000 -1.0000 0.0000
vn 1.0000 0.0000 0.0000
vn 0.0000 0.0000 -1.0000
vn 0.5009 0.0000 0.8655
vn 0.5009 0.0000 -0.8655
vn 0.5456 -0.8380 0.0000
vn 0.5456 0.8380 0.0000
usemtl Material
s off
f 9/1/1 5/2/1 7/3/1 11/4/1
f 12/5/2 11/6/2 7/7/2 8/8/2
f 8/8/3 7/7/3 5/9/3 6/10/3
f 6/10/4 10/11/4 12/12/4 8/13/4
f 2/14/5 1/15/5 3/16/5 4/17/5
f 6/18/6 5/19/6 9/20/6 10/11/6
f 13/21/5 14/22/5 10/23/5 9/24/5
f 16/25/5 15/26/5 11/27/5 12/28/5
f 15/26/5 13/21/5 9/24/5 11/27/5
f 14/22/5 16/25/5 12/28/5 10/23/5
f 1/15/7 2/14/7 14/22/7 13/21/7
f 4/17/8 3/16/8 15/26/8 16/25/8
f 3/16/9 1/15/9 13/21/9 15/26/9
f 2/14/10 4/17/10 16/25/10 14/22/10
