# Blender v2.80 (sub 75) OBJ File: 'cctv camera.blend'
# www.blender.org
mtllib Camera Stand.mtl
o wall_stand_Cube.001
v -0.979361 0.662277 -0.138973
v -0.976635 0.596423 -0.139098
v -0.979691 0.661737 0.139151
v -0.976965 0.595882 0.139027
v 1.000000 0.656365 -0.139063
v 0.968605 0.101217 -0.139063
v 1.000000 0.656365 0.139062
v 0.968605 0.101217 0.139062
v -0.976800 0.596152 -0.000036
v -0.000003 0.349813 0.139063
v 0.968605 0.101217 -0.000000
v -0.000003 0.349813 -0.139063
v -0.000003 0.349813 0.000000
v -0.976882 0.596017 0.069496
v 0.484301 0.225515 0.139063
v 0.968605 0.101217 -0.069531
v -0.484306 0.474111 -0.139063
v -0.976717 0.596288 -0.069567
v -0.484306 0.474111 0.139063
v 0.968605 0.101217 0.069531
v 0.484301 0.225515 -0.139063
v -0.000003 0.349813 -0.069531
v -0.000003 0.349813 0.069531
v 0.484301 0.225515 -0.000000
v -0.484306 0.474111 0.000000
v -0.484306 0.474111 0.069531
v 0.484301 0.225515 0.069531
v 0.484301 0.225515 -0.069531
v -0.484306 0.474111 -0.069531
v -0.726458 0.536260 -0.139063
v -0.726458 0.536260 0.139063
v -0.726458 0.536260 0.000000
v -0.726458 0.536260 0.069531
v -0.726458 0.536260 -0.069531
v -0.242154 0.411962 0.139063
v -0.242154 0.411962 0.000000
v -0.242154 0.411962 -0.139063
v -0.242154 0.411962 0.069531
v -0.242154 0.411962 -0.069531
v 0.242149 0.287664 -0.139063
v 0.242149 0.287664 0.139063
v 0.242149 0.287664 -0.000000
v 0.242149 0.287664 0.069531
v 0.242149 0.287664 -0.069531
v 0.726453 0.163366 0.139063
v 0.726453 0.163366 -0.000000
v 0.726453 0.163366 -0.139063
v 0.726453 0.163366 0.069531
v 0.726453 0.163366 -0.069531
v 0.605377 0.194440 -0.139063
v 0.605377 0.194440 0.139063
v 0.605377 0.194440 -0.000000
v 0.605377 0.194440 0.069531
v 0.605377 0.194440 -0.069531
v 0.847529 0.132291 0.139063
v 0.847529 0.132291 -0.000000
v 0.847529 0.132291 0.069531
v 0.847529 0.132291 -0.069531
v 0.847529 0.132291 -0.139063
v 0.363225 0.256589 0.139063
v 0.363225 0.256589 -0.000000
v 0.363225 0.256589 0.069531
v 0.363225 0.256589 -0.069531
v 0.363225 0.256589 -0.139063
v 0.121073 0.318738 -0.139063
v 0.121073 0.318738 0.139063
v 0.121073 0.318738 -0.000000
v 0.121073 0.318738 0.069531
v 0.121073 0.318738 -0.069531
v -0.121079 0.380887 0.139063
v -0.121079 0.380887 0.000000
v -0.121079 0.380887 0.069531
v -0.121079 0.380887 -0.069531
v -0.121079 0.380887 -0.139063
v -0.363230 0.443036 -0.139063
v -0.363230 0.443036 0.139063
v -0.363230 0.443036 0.000000
v -0.363230 0.443036 0.069531
v -0.363230 0.443036 -0.069531
v -0.605382 0.505186 0.139063
v -0.605382 0.505186 0.000000
v -0.605382 0.505186 0.069531
v -0.605382 0.505186 -0.069531
v -0.605382 0.505186 -0.139063
v -0.849548 0.567851 -0.139063
v -0.849548 0.567851 0.139063
v -0.849548 0.567851 0.000000
v -0.849548 0.567851 0.069531
v -0.849548 0.567851 -0.069531
v -0.907550 0.582738 -0.139063
v -0.907550 0.582738 0.139063
v -0.907550 0.582738 0.000000
v -0.907550 0.582738 0.069531
v -0.907550 0.582738 -0.069531
v -0.788003 0.552056 0.139063
v -0.788003 0.552056 0.000000
v -0.788003 0.552056 0.069531
v -0.788003 0.552056 -0.069531
v -0.788003 0.552056 -0.139063
v -0.665920 0.520723 -0.139063
v -0.665920 0.520723 0.139063
v -0.665920 0.520723 0.000000
v -0.665920 0.520723 0.069531
v -0.665920 0.520723 -0.069531
v -0.544844 0.489648 0.139063
v -0.544844 0.489648 0.000000
v -0.544844 0.489648 0.069531
v -0.544844 0.489648 -0.069531
v -0.544844 0.489648 -0.139063
v -0.423768 0.458574 -0.139063
v -0.423768 0.458574 0.139063
v -0.423768 0.458574 0.000000
v -0.423768 0.458574 0.069531
v -0.423768 0.458574 -0.069531
v -0.302692 0.427499 0.139063
v -0.302692 0.427499 0.000000
v -0.302692 0.427499 0.069531
v -0.302692 0.427499 -0.069531
v -0.302692 0.427499 -0.139063
v -0.181617 0.396425 -0.139063
v -0.181616 0.396425 0.139063
v -0.181617 0.396425 0.000000
v -0.181617 0.396425 0.069531
v -0.181617 0.396425 -0.069531
v -0.060541 0.365350 0.139063
v -0.060541 0.365350 0.000000
v -0.060541 0.365350 0.069531
v -0.060541 0.365350 -0.069531
v -0.060541 0.365350 -0.139063
v 0.060535 0.334276 -0.139063
v 0.060535 0.334276 0.139063
v 0.060535 0.334276 -0.000000
v 0.060535 0.334276 0.069531
v 0.060535 0.334276 -0.069531
v 0.181611 0.303201 0.139063
v 0.181611 0.303201 -0.000000
v 0.181611 0.303201 0.069531
v 0.181611 0.303201 -0.069531
v 0.181611 0.303201 -0.139063
v 0.302687 0.272127 -0.139063
v 0.302687 0.272127 0.139063
v 0.302687 0.272127 -0.000000
v 0.302687 0.272127 0.069531
v 0.302687 0.272127 -0.069531
v 0.423763 0.241052 0.139063
v 0.423763 0.241052 -0.000000
v 0.423763 0.241052 0.069531
v 0.423763 0.241052 -0.069531
v 0.423763 0.241052 -0.139063
v 0.544839 0.209978 -0.139063
v 0.544839 0.209978 0.139063
v 0.544839 0.209978 -0.000000
v 0.544839 0.209978 0.069531
v 0.544839 0.209978 -0.069531
v 0.665915 0.178903 0.139063
v 0.665915 0.178903 -0.000000
v 0.665915 0.178903 0.069531
v 0.665915 0.178903 -0.069531
v 0.665915 0.178903 -0.139063
v 0.786991 0.147828 -0.139063
v 0.786991 0.147828 0.139063
v 0.786991 0.147828 -0.000000
v 0.786991 0.147828 0.069531
v 0.786991 0.147828 -0.069531
v 0.908067 0.116754 0.139063
v 0.908067 0.116754 -0.000000
v 0.908067 0.116754 0.069531
v 0.908067 0.116754 -0.069531
v 0.908067 0.116754 -0.139063
vt 0.375000 0.000000
vt 0.625000 0.000000
vt 0.625000 0.062500
vt 0.625000 0.125000
vt 0.625000 0.187500
vt 0.625000 0.250000
vt 0.375000 0.250000
vt 0.625000 0.257880
vt 0.625000 0.265365
vt 0.625000 0.273308
vt 0.625000 0.281250
vt 0.625000 0.289062
vt 0.625000 0.296875
vt 0.625000 0.304688
vt 0.625000 0.312500
vt 0.625000 0.320312
vt 0.625000 0.328125
vt 0.625000 0.335938
vt 0.625000 0.343750
vt 0.625000 0.351562
vt 0.625000 0.359375
vt 0.625000 0.367188
vt 0.625000 0.375000
vt 0.625000 0.382812
vt 0.625000 0.390625
vt 0.625000 0.398438
vt 0.625000 0.406250
vt 0.625000 0.414062
vt 0.625000 0.421875
vt 0.625000 0.429688
vt 0.625000 0.437500
vt 0.625000 0.445312
vt 0.625000 0.453125
vt 0.625000 0.460938
vt 0.625000 0.468750
vt 0.625000 0.476562
vt 0.625000 0.484375
vt 0.625000 0.492188
vt 0.625000 0.500000
vt 0.375000 0.500000
vt 0.625000 0.562500
vt 0.625000 0.625000
vt 0.625000 0.687500
vt 0.625000 0.750000
vt 0.375000 0.750000
vt 0.625000 0.757812
vt 0.625000 0.765625
vt 0.625000 0.773438
vt 0.625000 0.781250
vt 0.625000 0.789062
vt 0.625000 0.796875
vt 0.625000 0.804688
vt 0.625000 0.812500
vt 0.625000 0.820312
vt 0.625000 0.828125
vt 0.625000 0.835938
vt 0.625000 0.843750
vt 0.625000 0.851562
vt 0.625000 0.859375
vt 0.625000 0.867188
vt 0.625000 0.875000
vt 0.625000 0.882812
vt 0.625000 0.890625
vt 0.625000 0.898438
vt 0.625000 0.906250
vt 0.625000 0.914062
vt 0.625000 0.921875
vt 0.625000 0.929688
vt 0.625000 0.937500
vt 0.625000 0.945312
vt 0.625000 0.953125
vt 0.625000 0.960938
vt 0.625000 0.968750
vt 0.625000 0.976692
vt 0.625000 0.984635
vt 0.625000 0.992120
vt 0.625000 1.000000
vt 0.375000 1.000000
vt 0.125000 0.500000
vt 0.125000 0.750000
vt 0.867120 0.687500
vt 0.875000 0.687500
vt 0.875000 0.750000
vt 0.867120 0.750000
vt 0.742188 0.687500
vt 0.750000 0.687500
vt 0.750000 0.750000
vt 0.742188 0.750000
vt 0.742188 0.562500
vt 0.750000 0.562500
vt 0.750000 0.625000
vt 0.742188 0.625000
vt 0.867120 0.562500
vt 0.875000 0.562500
vt 0.875000 0.625000
vt 0.867120 0.625000
vt 0.804688 0.562500
vt 0.812500 0.562500
vt 0.812500 0.625000
vt 0.804688 0.625000
vt 0.804688 0.500000
vt 0.812500 0.500000
vt 0.867120 0.500000
vt 0.875000 0.500000
vt 0.679688 0.562500
vt 0.687500 0.562500
vt 0.687500 0.625000
vt 0.679688 0.625000
vt 0.679688 0.500000
vt 0.687500 0.500000
vt 0.742188 0.500000
vt 0.750000 0.500000
vt 0.679688 0.687500
vt 0.687500 0.687500
vt 0.687500 0.750000
vt 0.679688 0.750000
vt 0.804688 0.687500
vt 0.812500 0.687500
vt 0.812500 0.750000
vt 0.804688 0.750000
vt 0.835938 0.625000
vt 0.843750 0.625000
vt 0.843750 0.687500
vt 0.835938 0.687500
vt 0.835938 0.500000
vt 0.843750 0.500000
vt 0.843750 0.562500
vt 0.835938 0.562500
vt 0.843750 0.750000
vt 0.835938 0.750000
vt 0.773438 0.625000
vt 0.781250 0.625000
vt 0.781250 0.687500
vt 0.773438 0.687500
vt 0.781250 0.750000
vt 0.773438 0.750000
vt 0.773438 0.500000
vt 0.781250 0.500000
vt 0.781250 0.562500
vt 0.773438 0.562500
vt 0.710938 0.625000
vt 0.718750 0.625000
vt 0.718750 0.687500
vt 0.710938 0.687500
vt 0.710938 0.500000
vt 0.718750 0.500000
vt 0.718750 0.562500
vt 0.710938 0.562500
vt 0.718750 0.750000
vt 0.710938 0.750000
vt 0.648438 0.625000
vt 0.656250 0.625000
vt 0.656250 0.687500
vt 0.648438 0.687500
vt 0.656250 0.750000
vt 0.648438 0.750000
vt 0.648438 0.500000
vt 0.656250 0.500000
vt 0.656250 0.562500
vt 0.648438 0.562500
vt 0.664062 0.625000
vt 0.671875 0.625000
vt 0.671875 0.687500
vt 0.664062 0.687500
vt 0.671875 0.750000
vt 0.664062 0.750000
vt 0.664062 0.500000
vt 0.671875 0.500000
vt 0.671875 0.562500
vt 0.664062 0.562500
vt 0.632812 0.562500
vt 0.640625 0.562500
vt 0.640625 0.625000
vt 0.632812 0.625000
vt 0.632812 0.500000
vt 0.640625 0.500000
vt 0.632812 0.687500
vt 0.640625 0.687500
vt 0.640625 0.750000
vt 0.632812 0.750000
vt 0.695312 0.687500
vt 0.703125 0.687500
vt 0.703125 0.750000
vt 0.695312 0.750000
vt 0.695312 0.562500
vt 0.703125 0.562500
vt 0.703125 0.625000
vt 0.695312 0.625000
vt 0.695312 0.500000
vt 0.703125 0.500000
vt 0.726562 0.625000
vt 0.734375 0.625000
vt 0.734375 0.687500
vt 0.726562 0.687500
vt 0.726562 0.500000
vt 0.734375 0.500000
vt 0.734375 0.562500
vt 0.726562 0.562500
vt 0.734375 0.750000
vt 0.726562 0.750000
vt 0.757812 0.562500
vt 0.765625 0.562500
vt 0.765625 0.625000
vt 0.757812 0.625000
vt 0.757812 0.500000
vt 0.765625 0.500000
vt 0.757812 0.687500
vt 0.765625 0.687500
vt 0.765625 0.750000
vt 0.757812 0.750000
vt 0.789062 0.625000
vt 0.796875 0.625000
vt 0.796875 0.687500
vt 0.789062 0.687500
vt 0.796875 0.750000
vt 0.789062 0.750000
vt 0.789062 0.500000
vt 0.796875 0.500000
vt 0.796875 0.562500
vt 0.789062 0.562500
vt 0.820312 0.687500
vt 0.828125 0.687500
vt 0.828125 0.750000
vt 0.820312 0.750000
vt 0.820312 0.562500
vt 0.828125 0.562500
vt 0.828125 0.625000
vt 0.820312 0.625000
vt 0.820312 0.500000
vt 0.828125 0.500000
vt 0.851692 0.625000
vt 0.859635 0.625000
vt 0.859635 0.687500
vt 0.851692 0.687500
vt 0.851692 0.500000
vt 0.859635 0.500000
vt 0.859635 0.562500
vt 0.851692 0.562500
vt 0.859635 0.750000
vt 0.851692 0.750000
vn -0.9991 -0.0414 -0.0013
vn 0.0000 -0.0001 1.0000
vn 0.9984 -0.0565 0.0000
vn -0.0000 0.0001 -1.0000
vn 0.0028 1.0000 0.0010
vn -0.1933 -0.9811 -0.0011
vn -0.2486 -0.9686 -0.0000
vn -0.1891 -0.9819 -0.0011
vn -0.1871 -0.9823 -0.0011
vn -0.1912 -0.9815 -0.0011
usemtl None
s off
f 1/1/1 2/2/1 18/3/1 9/4/1 14/5/1 4/6/1 3/7/1
f 3/7/2 4/6/2 91/8/2 86/9/2 95/10/2 31/11/2 101/12/2 80/13/2 105/14/2 19/15/2 111/16/2 76/17/2 115/18/2 35/19/2 121/20/2 70/21/2 125/22/2 10/23/2 131/24/2 66/25/2 135/26/2 41/27/2 141/28/2 60/29/2 145/30/2 15/31/2 151/32/2 51/33/2 155/34/2 45/35/2 161/36/2 55/37/2 165/38/2 8/39/2 7/40/2
f 7/40/3 8/39/3 20/41/3 11/42/3 16/43/3 6/44/3 5/45/3
f 5/45/4 6/44/4 169/46/4 59/47/4 160/48/4 47/49/4 159/50/4 50/51/4 150/52/4 21/53/4 149/54/4 64/55/4 140/56/4 40/57/4 139/58/4 65/59/4 130/60/4 12/61/4 129/62/4 74/63/4 120/64/4 37/65/4 119/66/4 75/67/4 110/68/4 17/69/4 109/70/4 84/71/4 100/72/4 30/73/4 99/74/4 85/75/4 90/76/4 2/77/4 1/78/4
f 3/79/5 7/40/5 5/45/5 1/80/5
f 94/81/6 18/82/6 2/83/6 90/84/6
f 134/85/7 22/86/7 12/87/7 130/88/7
f 133/89/7 23/90/7 13/91/7 132/92/7
f 93/93/8 14/94/8 9/95/8 92/96/8
f 113/97/7 26/98/7 25/99/7 112/100/7
f 111/101/7 19/102/7 26/98/7 113/97/7
f 91/103/9 4/104/9 14/94/9 93/93/9
f 153/105/7 27/106/7 24/107/7 152/108/7
f 151/109/7 15/110/7 27/106/7 153/105/7
f 131/111/7 10/112/7 23/90/7 133/89/7
f 154/113/7 28/114/7 21/115/7 150/116/7
f 152/108/7 24/107/7 28/114/7 154/113/7
f 132/92/7 13/91/7 22/86/7 134/85/7
f 114/117/7 29/118/7 17/119/7 110/120/7
f 112/100/7 25/99/7 29/118/7 114/117/7
f 92/96/10 9/95/10 18/82/10 94/81/10
f 102/121/7 32/122/7 34/123/7 104/124/7
f 101/125/7 31/126/7 33/127/7 103/128/7
f 103/128/7 33/127/7 32/122/7 102/121/7
f 104/124/7 34/123/7 30/129/7 100/130/7
f 122/131/7 36/132/7 39/133/7 124/134/7
f 124/134/7 39/133/7 37/135/7 120/136/7
f 121/137/7 35/138/7 38/139/7 123/140/7
f 123/140/7 38/139/7 36/132/7 122/131/7
f 142/141/7 42/142/7 44/143/7 144/144/7
f 141/145/7 41/146/7 43/147/7 143/148/7
f 143/148/7 43/147/7 42/142/7 142/141/7
f 144/144/7 44/143/7 40/149/7 140/150/7
f 162/151/7 46/152/7 49/153/7 164/154/7
f 164/154/7 49/153/7 47/155/7 160/156/7
f 161/157/7 45/158/7 48/159/7 163/160/7
f 163/160/7 48/159/7 46/152/7 162/151/7
f 156/161/7 52/162/7 54/163/7 158/164/7
f 158/164/7 54/163/7 50/165/7 159/166/7
f 155/167/7 51/168/7 53/169/7 157/170/7
f 157/170/7 53/169/7 52/162/7 156/161/7
f 167/171/7 57/172/7 56/173/7 166/174/7
f 165/175/7 55/176/7 57/172/7 167/171/7
f 168/177/7 58/178/7 59/179/7 169/180/7
f 166/174/7 56/173/7 58/178/7 168/177/7
f 148/181/7 63/182/7 64/183/7 149/184/7
f 147/185/7 62/186/7 61/187/7 146/188/7
f 145/189/7 60/190/7 62/186/7 147/185/7
f 146/188/7 61/187/7 63/182/7 148/181/7
f 136/191/7 67/192/7 69/193/7 138/194/7
f 135/195/7 66/196/7 68/197/7 137/198/7
f 137/198/7 68/197/7 67/192/7 136/191/7
f 138/194/7 69/193/7 65/199/7 139/200/7
f 127/201/7 72/202/7 71/203/7 126/204/7
f 125/205/7 70/206/7 72/202/7 127/201/7
f 128/207/7 73/208/7 74/209/7 129/210/7
f 126/204/7 71/203/7 73/208/7 128/207/7
f 116/211/7 77/212/7 79/213/7 118/214/7
f 118/214/7 79/213/7 75/215/7 119/216/7
f 115/217/7 76/218/7 78/219/7 117/220/7
f 117/220/7 78/219/7 77/212/7 116/211/7
f 108/221/7 83/222/7 84/223/7 109/224/7
f 107/225/7 82/226/7 81/227/7 106/228/7
f 105/229/7 80/230/7 82/226/7 107/225/7
f 106/228/7 81/227/7 83/222/7 108/221/7
f 96/231/7 87/232/7 89/233/7 98/234/7
f 95/235/7 86/236/7 88/237/7 97/238/7
f 97/238/7 88/237/7 87/232/7 96/231/7
f 98/234/7 89/233/7 85/239/7 99/240/7
f 87/232/7 92/96/7 94/81/7 89/233/7
f 86/236/7 91/103/7 93/93/7 88/237/7
f 88/237/7 93/93/7 92/96/7 87/232/7
f 89/233/7 94/81/7 90/84/7 85/239/7
f 34/123/7 98/234/7 99/240/7 30/129/7
f 33/127/7 97/238/7 96/231/7 32/122/7
f 31/126/7 95/235/7 97/238/7 33/127/7
f 32/122/7 96/231/7 98/234/7 34/123/7
f 83/222/7 104/124/7 100/130/7 84/223/7
f 82/226/7 103/128/7 102/121/7 81/227/7
f 80/230/7 101/125/7 103/128/7 82/226/7
f 81/227/7 102/121/7 104/124/7 83/222/7
f 25/99/7 106/228/7 108/221/7 29/118/7
f 19/102/7 105/229/7 107/225/7 26/98/7
f 26/98/7 107/225/7 106/228/7 25/99/7
f 29/118/7 108/221/7 109/224/7 17/119/7
f 77/212/7 112/100/7 114/117/7 79/213/7
f 79/213/7 114/117/7 110/120/7 75/215/7
f 76/218/7 111/101/7 113/97/7 78/219/7
f 78/219/7 113/97/7 112/100/7 77/212/7
f 38/139/7 117/220/7 116/211/7 36/132/7
f 35/138/7 115/217/7 117/220/7 38/139/7
f 39/133/7 118/214/7 119/216/7 37/135/7
f 36/132/7 116/211/7 118/214/7 39/133/7
f 72/202/7 123/140/7 122/131/7 71/203/7
f 70/206/7 121/137/7 123/140/7 72/202/7
f 73/208/7 124/134/7 120/136/7 74/209/7
f 71/203/7 122/131/7 124/134/7 73/208/7
f 13/91/7 126/204/7 128/207/7 22/86/7
f 22/86/7 128/207/7 129/210/7 12/87/7
f 10/112/7 125/205/7 127/201/7 23/90/7
f 23/90/7 127/201/7 126/204/7 13/91/7
f 67/192/7 132/92/7 134/85/7 69/193/7
f 66/196/7 131/111/7 133/89/7 68/197/7
f 68/197/7 133/89/7 132/92/7 67/192/7
f 69/193/7 134/85/7 130/88/7 65/199/7
f 44/143/7 138/194/7 139/200/7 40/149/7
f 43/147/7 137/198/7 136/191/7 42/142/7
f 41/146/7 135/195/7 137/198/7 43/147/7
f 42/142/7 136/191/7 138/194/7 44/143/7
f 63/182/7 144/144/7 140/150/7 64/183/7
f 62/186/7 143/148/7 142/141/7 61/187/7
f 60/190/7 141/145/7 143/148/7 62/186/7
f 61/187/7 142/141/7 144/144/7 63/182/7
f 24/107/7 146/188/7 148/181/7 28/114/7
f 15/110/7 145/189/7 147/185/7 27/106/7
f 27/106/7 147/185/7 146/188/7 24/107/7
f 28/114/7 148/181/7 149/184/7 21/115/7
f 52/162/7 152/108/7 154/113/7 54/163/7
f 54/163/7 154/113/7 150/116/7 50/165/7
f 51/168/7 151/109/7 153/105/7 53/169/7
f 53/169/7 153/105/7 152/108/7 52/162/7
f 48/159/7 157/170/7 156/161/7 46/152/7
f 45/158/7 155/167/7 157/170/7 48/159/7
f 49/153/7 158/164/7 159/166/7 47/155/7
f 46/152/7 156/161/7 158/164/7 49/153/7
f 57/172/7 163/160/7 162/151/7 56/173/7
f 55/176/7 161/157/7 163/160/7 57/172/7
f 58/178/7 164/154/7 160/156/7 59/179/7
f 56/173/7 162/151/7 164/154/7 58/178/7
f 11/42/7 166/174/7 168/177/7 16/43/7
f 16/43/7 168/177/7 169/180/7 6/44/7
f 8/39/7 165/175/7 167/171/7 20/41/7
f 20/41/7 167/171/7 166/174/7 11/42/7
o Stand_Cube.002
v -0.907058 0.624185 0.100000
v -0.907058 0.847308 0.100000
v -0.907058 0.624185 -0.100000
v -0.907058 0.847308 -0.100000
v -0.786838 0.624185 0.100000
v -0.786838 0.847308 0.100000
v -0.786838 0.624185 -0.100000
v -0.786838 0.847308 -0.100000
vt 0.375000 0.000000
vt 0.625000 0.000000
vt 0.625000 0.250000
vt 0.375000 0.250000
vt 0.625000 0.500000
vt 0.375000 0.500000
vt 0.625000 0.750000
vt 0.375000 0.750000
vt 0.625000 1.000000
vt 0.375000 1.000000
vt 0.125000 0.500000
vt 0.125000 0.750000
vt 0.875000 0.500000
vt 0.875000 0.750000
vn -1.0000 0.0000 0.0000
vn 0.0000 0.0000 -1.0000
vn 1.0000 0.0000 0.0000
vn 0.0000 0.0000 1.0000
vn 0.0000 -1.0000 0.0000
vn 0.0000 1.0000 0.0000
usemtl None
s off
f 170/241/11 171/242/11 173/243/11 172/244/11
f 172/244/12 173/243/12 177/245/12 176/246/12
f 176/246/13 177/245/13 175/247/13 174/248/13
f 174/248/14 175/247/14 171/249/14 170/250/14
f 172/251/15 176/246/15 174/248/15 170/252/15
f 177/245/16 173/253/16 171/254/16 175/247/16
