# Blender v2.80 (sub 75) OBJ File: 'Human01.blend'
# www.blender.org
mtllib Human01.mtl
o Body_Cube
v 0.518700 4.238070 -0.595625
v 0.518700 4.238070 0.595625
v -0.531900 4.238070 -0.595625
v -0.531900 4.238070 0.595625
v 0.791099 2.238070 -0.685204
v -0.763167 2.238070 0.682114
v 0.791099 2.238070 0.682114
v -0.763167 2.238070 -0.685204
v -1.038016 3.198140 0.896088
v 0.907393 3.238227 -0.829266
v 0.907393 3.238227 0.829266
v -1.038016 3.198140 -0.881036
v -0.954464 3.778001 0.906740
v 0.846049 3.738070 -0.829266
v 0.846049 3.738070 0.829266
v -0.954464 3.778001 -0.908530
v -0.693345 1.738070 0.762122
v 0.822042 1.738070 -0.765212
v 0.822042 1.738070 0.762122
v -0.693345 1.738070 -0.765212
v 0.770224 2.738070 -0.765212
v 0.770224 2.738070 0.762122
v -0.797435 2.738070 -0.765212
v -0.797435 2.738070 0.762122
v 0.305002 4.414874 0.352127
v -0.318203 4.414874 0.352127
v 0.305002 4.414874 -0.352127
v -0.318203 4.414874 -0.352127
vt 0.625000 0.750000
vt 0.625000 0.500000
vt 0.625000 0.500000
vt 0.625000 0.750000
vt 0.593750 0.250000
vt 0.625000 0.250000
vt 0.593750 0.500000
vt 0.593750 0.750000
vt 0.343750 0.500000
vt 0.375000 0.500000
vt 0.375000 0.750000
vt 0.343750 0.750000
vt 0.843750 0.500000
vt 0.875000 0.500000
vt 0.875000 0.750000
vt 0.843750 0.750000
vt 0.718750 0.500000
vt 0.750000 0.500000
vt 0.750000 0.750000
vt 0.718750 0.750000
vt 0.218750 0.500000
vt 0.250000 0.500000
vt 0.250000 0.750000
vt 0.218750 0.750000
vt 0.468750 0.500000
vt 0.500000 0.500000
vt 0.500000 0.750000
vt 0.468750 0.750000
vt 0.468750 0.250000
vt 0.500000 0.250000
vt 0.781250 0.500000
vt 0.812500 0.500000
vt 0.812500 0.750000
vt 0.781250 0.750000
vt 0.281250 0.500000
vt 0.312500 0.500000
vt 0.312500 0.750000
vt 0.281250 0.750000
vt 0.531250 0.500000
vt 0.562500 0.500000
vt 0.562500 0.750000
vt 0.531250 0.750000
vt 0.531250 0.250000
vt 0.562500 0.250000
vt 0.718750 0.500000
vt 0.718750 0.750000
vt 0.468750 0.250000
vt 0.468750 0.500000
vt 0.375000 0.000000
vt 0.625000 0.000000
vt 0.625000 0.250000
vt 0.375000 0.250000
vt 0.375000 0.500000
vt 0.375000 0.750000
vt 0.875000 0.500000
vt 0.875000 0.750000
vt 0.625000 0.250000
vn -0.6375 0.7705 0.0000
vn 0.0305 0.4910 0.8706
vn -0.7365 0.6764 0.0000
vn 0.8366 0.5477 0.0000
vn 0.0311 0.4922 -0.8699
vn 0.0000 0.1580 -0.9874
vn 0.9981 0.0618 0.0000
vn -0.9904 -0.1383 0.0000
vn 0.0000 0.1580 0.9874
vn 0.0166 -0.1824 -0.9831
vn 0.9644 -0.2645 0.0000
vn -0.8862 -0.4634 0.0000
vn 0.0209 -0.2028 0.9790
vn 0.0349 -0.0262 -0.9990
vn 0.9926 0.1218 0.0000
vn -0.9898 0.1426 0.0000
vn 0.0385 -0.0106 0.9992
vn 0.0000 -1.0000 0.0000
vn 0.0000 -0.1580 0.9874
vn -0.9977 -0.0684 0.0000
vn 0.9991 0.0417 0.0000
vn 0.0000 -0.1580 -0.9874
vn 0.0000 1.0000 0.0000
vn 0.6375 0.7705 0.0000
vn 0.0000 0.8092 -0.5875
vn 0.0000 0.8092 0.5875
usemtl Material
s off
f 3/1/1 4/2/1 26/3/1 28/4/1
f 15/5/2 2/6/2 4/2/2 13/7/2
f 13/7/3 4/2/3 3/1/3 16/8/3
f 14/9/4 1/10/4 2/11/4 15/12/4
f 16/13/5 3/14/5 1/15/5 14/16/5
f 20/17/6 8/18/6 5/19/6 18/20/6
f 18/21/7 5/22/7 7/23/7 19/24/7
f 17/25/8 6/26/8 8/27/8 20/28/8
f 19/29/9 7/30/9 6/26/9 17/25/9
f 23/31/10 12/32/10 10/33/10 21/34/10
f 21/35/11 10/36/11 11/37/11 22/38/11
f 24/39/12 9/40/12 12/41/12 23/42/12
f 22/43/13 11/44/13 9/40/13 24/39/13
f 12/32/14 16/13/14 14/16/14 10/33/14
f 10/36/15 14/9/15 15/12/15 11/37/15
f 9/40/16 13/7/16 16/8/16 12/41/16
f 11/44/17 15/5/17 13/7/17 9/40/17
f 17/45/18 20/46/18 18/47/18 19/48/18
f 7/30/19 22/43/19 24/39/19 6/26/19
f 6/26/20 24/39/20 23/42/20 8/27/20
f 5/22/21 21/35/21 22/38/21 7/23/21
f 8/18/22 23/31/22 21/34/22 5/19/22
f 27/49/23 28/50/23 26/51/23 25/52/23
f 2/11/24 1/10/24 27/53/24 25/54/24
f 1/15/25 3/14/25 28/55/25 27/56/25
f 4/2/26 2/6/26 25/57/26 26/3/26
o Cube_Cube.001
v -0.916720 4.512044 0.375909
v -0.697900 6.231887 0.796435
v -0.916720 4.512044 -0.375909
v -0.697900 6.231887 -0.796435
v 0.426745 4.594763 0.476114
v 0.605205 6.368785 0.716698
v 0.418476 4.645238 -0.507090
v 0.605205 6.368785 -0.722261
v -0.760790 5.452513 0.916720
v -0.760790 5.452513 -0.916720
v 0.916720 5.428764 -0.916720
v 0.916720 5.428764 0.916720
v -0.916720 4.970404 -0.706549
v 0.871175 4.965629 -0.770064
v 0.871175 4.965629 0.800428
v -0.916720 4.970404 0.680787
v -0.842523 5.875597 0.916720
v -0.842523 5.875597 -0.916720
v 0.806512 5.910067 -0.916720
v 0.806512 5.910067 0.916720
v -0.916720 4.512044 0.000000
v -0.697900 6.231887 0.000000
v 0.443005 4.589774 0.000000
v 0.608082 6.364829 0.000000
v 0.916720 5.428764 0.000000
v -0.760790 5.452513 0.000000
v -0.916720 4.970404 0.000000
v 0.871175 4.965629 0.000000
v 0.806512 5.910067 0.000000
v -0.842523 5.875597 0.000000
v 0.000000 4.512044 -0.274779
v -0.517582 6.361529 -0.768074
v 0.000000 4.518874 0.229018
v -0.517582 6.361529 0.768074
v 0.000000 5.428764 0.916720
v 0.000000 5.428764 -0.916720
v 0.000000 4.970404 -0.770064
v 0.000000 4.970404 0.800428
v 0.000000 5.887124 0.916720
v 0.000000 5.887124 -0.916720
v -0.517582 6.361529 0.000000
v 0.000000 4.512044 0.000000
vt 0.562500 0.125000
vt 0.625000 0.125000
vt 0.625000 0.250000
vt 0.562500 0.250000
vt 0.562500 0.375000
vt 0.625000 0.375000
vt 0.625000 0.500000
vt 0.562500 0.500000
vt 0.562500 0.625000
vt 0.625000 0.625000
vt 0.625000 0.750000
vt 0.562500 0.750000
vt 0.562500 0.875000
vt 0.625000 0.875000
vt 0.625000 1.000000
vt 0.562500 1.000000
vt 0.250000 0.625000
vt 0.375000 0.625000
vt 0.375000 0.750000
vt 0.250000 0.750000
vt 0.750000 0.625000
vt 0.875000 0.625000
vt 0.875000 0.750000
vt 0.750000 0.750000
vt 0.437500 0.875000
vt 0.500000 0.875000
vt 0.500000 1.000000
vt 0.437500 1.000000
vt 0.437500 0.625000
vt 0.500000 0.625000
vt 0.500000 0.750000
vt 0.437500 0.750000
vt 0.437500 0.375000
vt 0.500000 0.375000
vt 0.500000 0.500000
vt 0.437500 0.500000
vt 0.437500 0.125000
vt 0.500000 0.125000
vt 0.500000 0.250000
vt 0.437500 0.250000
vt 0.375000 0.125000
vt 0.375000 0.250000
vt 0.375000 0.375000
vt 0.375000 0.500000
vt 0.375000 0.875000
vt 0.375000 1.000000
vt 0.500000 0.000000
vt 0.562500 0.000000
vt 0.375000 0.000000
vt 0.437500 0.000000
vt 0.750000 0.500000
vt 0.875000 0.500000
vt 0.250000 0.500000
vt 0.625000 0.000000
vt 0.125000 0.500000
vt 0.125000 0.625000
vt 0.125000 0.750000
vn -0.9266 0.3761 0.0000
vn 0.0166 0.3563 -0.9342
vn 0.9161 0.4010 0.0006
vn -0.0152 0.3018 0.9533
vn 0.1683 -0.9855 0.0204
vn -0.5837 0.8119 0.0000
vn -0.0717 -0.3394 0.9379
vn 0.9952 -0.0979 0.0000
vn -0.0008 -0.3033 -0.9529
vn -0.9515 0.3077 0.0000
vn -1.0000 -0.0000 0.0000
vn -0.0648 -0.6766 -0.7335
vn 0.6477 -0.7618 0.0112
vn 0.0133 -0.6936 0.7202
vn 0.0000 0.0000 1.0000
vn 0.9748 0.2232 0.0000
vn 0.0000 0.0000 -1.0000
vn -0.9818 -0.1897 0.0000
vn 0.6109 -0.7903 -0.0461
vn 0.2178 -0.9730 -0.0759
vn 0.9161 0.4010 -0.0006
vn 0.0000 -1.0000 0.0000
vn -0.0047 1.0000 0.0027
vn -0.0940 -0.7097 0.6982
vn 0.0152 -0.6693 -0.7429
vn -0.0404 -0.3486 -0.9364
vn -0.0007 -0.2447 0.9696
vn -0.0048 1.0000 -0.0027
vn 0.0046 -0.9999 0.0113
vn 0.0191 0.3629 0.9316
vn -0.0152 0.3018 -0.9533
usemtl None
s off
f 58/58/27 50/59/27 32/60/27 46/61/27
f 68/62/28 60/63/28 36/64/28 47/65/28
f 57/66/29 52/67/29 34/68/29 48/69/29
f 67/70/30 62/71/30 30/72/30 45/73/30
f 70/74/31 51/75/31 33/76/31 61/77/31
f 69/78/32 50/79/32 30/80/32 62/81/32
f 66/82/33 63/83/33 37/84/33 44/85/33
f 56/86/34 53/87/34 40/88/34 43/89/34
f 65/90/35 64/91/35 39/92/35 42/93/35
f 55/94/36 54/95/36 38/96/36 41/97/36
f 49/98/37 55/94/37 41/97/37 31/99/37
f 59/100/38 65/90/38 42/93/38 35/101/38
f 51/75/39 56/86/39 43/89/39 33/76/39
f 61/102/40 66/82/40 44/85/40 29/103/40
f 63/83/41 67/70/41 45/73/41 37/84/41
f 53/87/42 57/66/42 48/69/42 40/88/42
f 64/91/43 68/62/43 47/65/43 39/92/43
f 54/95/44 58/58/44 46/61/44 38/96/44
f 37/104/44 45/105/44 58/58/44 54/95/44
f 39/92/42 47/65/42 57/66/42 53/87/42
f 35/101/45 42/93/45 56/86/45 51/75/45
f 29/106/37 44/107/37 55/94/37 49/98/37
f 44/107/36 37/104/36 54/95/36 55/94/36
f 42/93/34 39/92/34 53/87/34 56/86/34
f 60/108/32 32/109/32 50/79/32 69/78/32
f 59/110/46 35/101/46 51/75/46 70/74/46
f 47/65/47 36/64/47 52/67/47 57/66/47
f 45/105/27 30/111/27 50/59/27 58/58/27
f 31/112/48 59/110/48 70/74/48 49/113/48
f 36/64/49 60/108/49 69/78/49 52/67/49
f 38/96/43 46/61/43 68/62/43 64/91/43
f 40/88/41 48/69/41 67/70/41 63/83/41
f 33/76/50 43/89/50 66/82/50 61/102/50
f 31/99/51 41/97/51 65/90/51 59/100/51
f 41/97/52 38/96/52 64/91/52 65/90/52
f 43/89/53 40/88/53 63/83/53 66/82/53
f 52/67/54 69/78/54 62/81/54 34/68/54
f 49/113/55 70/74/55 61/77/55 29/114/55
f 48/69/56 34/68/56 62/71/56 67/70/56
f 46/61/57 32/60/57 60/63/57 68/62/57
